<?xml version="1.0"?>
<svg version="1.1" xmlns="http://www.w3.org/2000/svg" width="400px" height="200px" style="border: dashed 2px #aaa"><path fill="#2e668f" d="M50.861328125,102.3515625q0-0.90234375,0.0751953125-1.9755859375t0.2666015625-2.1533203125t0.57421875-2.0849609375t0.984375-1.791015625t1.4697265625-1.2509765625t2.0712890625-0.46484375q0.95703125,0,1.763671875,0.369140625t1.408203125,0.998046875t0.9365234375,1.4697265625t0.3349609375,1.7568359375q0,0.24609375-0.3349609375,0.3076171875t-0.4716796875,0.0615234375q-0.24609375,0-0.4716796875-0.041015625t-0.3349609375-0.328125q-0.19140625-0.533203125-0.4033203125-1.12109375t-0.51953125-1.0732421875t-0.7587890625-0.7998046875q-0.41015625-0.2734375-1.0390625-0.2734375l-0.109375,0q-1.1484375,0.02734375-1.708984375,0.8203125t-0.7724609375,1.927734375t-0.2119140625,2.40625l0,2.255859375q0,0.560546875,0.041015625,1.626953125t0.1982421875,2.32421875t0.41015625,2.5634765625t0.68359375,2.37890625t1.0322265625,1.75t1.44921875,0.6767578125q0.751953125,0,1.3125-0.51953125t0.9638671875-1.3330078125t0.68359375-1.818359375t0.46484375-2.0166015625t0.2802734375-1.8798828125t0.150390625-1.4287109375q-0.150390625-0.013671875-0.287109375-0.013671875q-0.642578125,0-1.2578125,0.205078125q-0.779296875,0.232421875-1.55859375,0.232421875q-0.109375,0-0.2939453125-0.013671875t-0.3486328125-0.068359375t-0.2939453125-0.1572265625t-0.1298828125-0.2666015625q0-0.314453125,0.6904296875-0.533203125t1.572265625-0.3759765625t1.7021484375-0.2255859375t1.080078125-0.068359375q0.13671875,0,0.3896484375,0.02734375t0.505859375,0.095703125t0.4306640625,0.1982421875t0.177734375,0.3212890625q0,0.1640625-0.123046875,0.2939453125t-0.3076171875,0.1982421875t-0.3759765625,0.095703125t-0.30078125,0.02734375q0.013671875,0.314453125,0.013671875,0.642578125q0,0.73828125-0.041015625,1.572265625q-0.068359375,1.203125-0.2734375,2.40625t-0.62890625,2.337890625t-1.080078125,2.0029296875t-1.6201171875,1.4013671875t-2.2900390625,0.533203125q-1.44921875,0-2.447265625-0.615234375t-1.626953125-1.640625t-0.9775390625-2.32421875t-0.4990234375-2.6591796875t-0.1845703125-2.6455078125t-0.0341796875-2.32421875z M66.45642578125,113.75390625q0-0.396484375,0.0341796875-0.833984375t0.0615234375-0.8203125l0.08203125-2.05078125q0.13671875-2.4609375,0.3349609375-4.83984375t0.3349609375-4.8125q0.08203125-1.33984375,0.123046875-2.6318359375t0.123046875-2.6318359375q-0.0546875-0.109375-0.0546875-0.150390625q0-0.19140625,0.1435546875-0.30078125t0.3349609375-0.1845703125t0.4033203125-0.1025390625t0.3212890625-0.02734375l0.314453125,0q0.423828125,0.0546875,0.615234375,0.2666015625t0.24609375,0.505859375t0.02734375,0.62890625t-0.02734375,0.6220703125q0,1.982421875-0.095703125,4.0400390625t-0.21875,4.12890625t-0.2255859375,4.142578125t-0.1025390625,4.0947265625l0,0.95703125q0,0.642578125-0.3623046875,0.84765625t-1.0048828125,0.205078125q-0.560546875,0-0.984375-0.24609375t-0.423828125-0.806640625z M72.7273046875,108.900390625q0-0.9296875,0.2529296875-1.791015625t0.7587890625-1.5380859375t1.2646484375-1.080078125t1.7568359375-0.4033203125q0.615234375,0,1.3603515625,0.1845703125t1.4013671875,0.546875t1.09375,0.9228515625t0.4375,1.28515625q0,0.341796875-0.1162109375,0.51953125t-0.4716796875,0.177734375l-0.150390625-0.02734375q0.396484375,1.06640625,0.68359375,2.1875t0.560546875,2.2421875q0.109375,0.21875,0.1640625,0.3896484375t0.0546875,0.3349609375q0,0.21875-0.123046875,0.3623046875t-0.3212890625,0.2119140625t-0.41015625,0.095703125t-0.3759765625,0.02734375q-0.587890625,0-0.8818359375-0.205078125t-0.423828125-0.560546875t-0.1572265625-0.7998046875t-0.109375-0.8955078125q-0.1640625,0.533203125-0.4306640625,1.0390625t-0.62890625,0.9091796875t-0.8544921875,0.642578125t-1.107421875,0.2392578125q-0.90234375,0-1.517578125-0.51953125t-0.9912109375-1.2783203125t-0.546875-1.6201171875t-0.1708984375-1.599609375z M74.6687109375,108.708984375q0,0.505859375,0.068359375,1.06640625t0.2255859375,1.107421875t0.4033203125,1.0322265625t0.615234375,0.8544921875q0.669921875-0.724609375,0.9912109375-1.763671875t0.57421875-2.0029296875t0.57421875-1.654296875t0.9912109375-0.6904296875q0.423828125,0,0.7109375,0.150390625q-0.13671875-0.341796875-0.451171875-0.6630859375t-0.7041015625-0.587890625t-0.806640625-0.4375t-0.7861328125-0.1708984375q-0.109375,0-0.2529296875,0.0341796875t-0.2255859375,0.0068359375q-0.560546875,0.1640625-0.9228515625,0.5673828125t-0.587890625,0.9501953125t-0.3212890625,1.12109375t-0.095703125,1.080078125z M84.57630859375,105.373046875q0-0.560546875,0.328125-0.9638671875t0.7998046875-0.65625t1.0322265625-0.3759765625t1.0390625-0.123046875q0.369140625,0,0.984375,0.109375t1.203125,0.328125t1.0185546875,0.57421875t0.4306640625,0.833984375q0,0.21875-0.1640625,0.3896484375t-0.341796875,0.1708984375q-0.369140625,0-0.669921875-0.2392578125t-0.6220703125-0.505859375t-0.7041015625-0.505859375t-0.861328125-0.2392578125t-0.8681640625,0.3076171875t-0.3896484375,0.8134765625q0,0.833984375,0.587890625,1.6337890625t1.2919921875,1.681640625t1.2919921875,1.8525390625t0.587890625,2.146484375q0,0.505859375-0.2119140625,0.8544921875t-0.560546875,0.5673828125t-0.7861328125,0.3349609375t-0.84765625,0.1162109375q-0.451171875,0-1.052734375-0.2119140625t-1.134765625-0.560546875t-0.8955078125-0.8134765625t-0.3623046875-0.970703125q0-0.24609375,0.3486328125-0.314453125t0.5126953125-0.068359375q0.08203125,0,0.2529296875,0.0546875t0.3349609375,0.123046875t0.2939453125,0.150390625t0.1025390625,0.177734375q0.13671875,0.1640625,0.4169921875,0.4853515625t0.560546875,0.51953125t0.4921875,0.1435546875t0.2119140625-0.615234375q0-1.06640625-0.57421875-1.9619140625t-1.2509765625-1.75t-1.2509765625-1.6953125t-0.57421875-1.7978515625z M94.21046875,105.373046875q0-0.560546875,0.328125-0.9638671875t0.7998046875-0.65625t1.0322265625-0.3759765625t1.0390625-0.123046875q0.369140625,0,0.984375,0.109375t1.203125,0.328125t1.0185546875,0.57421875t0.4306640625,0.833984375q0,0.21875-0.1640625,0.3896484375t-0.341796875,0.1708984375q-0.369140625,0-0.669921875-0.2392578125t-0.6220703125-0.505859375t-0.7041015625-0.505859375t-0.861328125-0.2392578125t-0.8681640625,0.3076171875t-0.3896484375,0.8134765625q0,0.833984375,0.587890625,1.6337890625t1.2919921875,1.681640625t1.2919921875,1.8525390625t0.587890625,2.146484375q0,0.505859375-0.2119140625,0.8544921875t-0.560546875,0.5673828125t-0.7861328125,0.3349609375t-0.84765625,0.1162109375q-0.451171875,0-1.052734375-0.2119140625t-1.134765625-0.560546875t-0.8955078125-0.8134765625t-0.3623046875-0.970703125q0-0.24609375,0.3486328125-0.314453125t0.5126953125-0.068359375q0.08203125,0,0.2529296875,0.0546875t0.3349609375,0.123046875t0.2939453125,0.150390625t0.1025390625,0.177734375q0.13671875,0.1640625,0.4169921875,0.4853515625t0.560546875,0.51953125t0.4921875,0.1435546875t0.2119140625-0.615234375q0-1.06640625-0.57421875-1.9619140625t-1.2509765625-1.75t-1.2509765625-1.6953125t-0.57421875-1.7978515625z M109.1721484375,109.638671875q0-2.966796875,0.2666015625-5.9404296875t1.1142578125-5.8583984375q0.24609375-0.861328125,0.642578125-1.7021484375t0.970703125-1.4970703125t1.3671875-1.06640625t1.88671875-0.41015625l0.287109375,0.02734375q1.17578125,0.1640625,1.736328125,0.9501953125t0.560546875,1.9619140625q0,0.314453125-0.0751953125,0.7861328125t-0.2392578125,0.9091796875t-0.4443359375,0.7451171875t-0.7041015625,0.3076171875q-0.19140625-0.02734375-0.3486328125-0.068359375t-0.2939453125-0.177734375q0.21875-0.478515625,0.3896484375-0.998046875t0.1708984375-1.189453125q0-0.24609375-0.041015625-0.62890625t-0.1572265625-0.7587890625t-0.3076171875-0.65625t-0.533203125-0.2802734375q-0.861328125,0-1.44921875,0.9638671875t-0.984375,2.4609375t-0.587890625,3.30859375t-0.2939453125,3.5t-0.1162109375,3.048828125t-0.013671875,1.9208984375q0,0.65625-0.013671875,1.44921875l0,0.177734375q0.013671875,0.697265625,0.095703125,1.326171875q0.109375,0.7109375,0.423828125,1.23046875t0.984375,0.6015625q0.205078125,0.02734375,0.396484375,0.02734375q0.79296875,0,1.435546875-0.451171875q0.79296875-0.560546875,1.408203125-1.4560546875t1.09375-1.96875t0.8818359375-2.0302734375t0.7861328125-1.5859375t0.79296875-0.62890625q0.13671875,0,0.41015625,0.0546875t0.2734375,0.259765625q0,0.0546875-0.02734375,0.150390625t-0.068359375,0.150390625q-0.369140625,1.44921875-0.9365234375,3.0078125t-1.44921875,2.8369140625t-2.16015625,2.0849609375t-3.0693359375,0.806640625q-1.28515625,0-2.0849609375-0.4853515625t-1.23046875-1.298828125t-0.587890625-1.8388671875t-0.1572265625-2.078125z M123.18130859375,107.697265625q0-0.2734375,0.0615234375-0.724609375t0.1435546875-0.8955078125t0.19140625-0.8271484375t0.259765625-0.4921875q0.109375-0.109375,0.3759765625-0.21875t0.560546875-0.1572265625t0.546875,0.041015625t0.3076171875,0.3623046875q-0.19140625,0.24609375-0.3486328125,0.8408203125t-0.2392578125,1.3193359375q-0.068359375,0.615234375-0.068359375,1.271484375l0,0.232421875q0.013671875,0.765625,0.13671875,1.408203125t0.3759765625,1.0595703125t0.7041015625,0.4169921875q0.95703125,0,1.75-0.8818359375t1.408203125-2.1533203125t1.080078125-2.7001953125t0.79296875-2.4951171875q0.08203125-0.314453125,0.3896484375-0.423828125t0.6630859375-0.0751953125t0.6357421875,0.1708984375t0.3349609375,0.328125q-0.2734375,2.296875-0.4306640625,4.59375t-0.1572265625,4.62109375q0,0.451171875,0.041015625,0.8271484375t-0.041015625,0.642578125t-0.3623046875,0.423828125t-0.8955078125,0.1572265625q-0.13671875,0-0.3486328125-0.02734375t-0.4375-0.0888671875t-0.3828125-0.1845703125t-0.1572265625-0.287109375q0-1.01171875,0.0751953125-2.078125t0.2119140625-2.064453125q-0.369140625,0.533203125-0.8134765625,1.0595703125t-0.9775390625,0.9501953125t-1.1484375,0.6767578125t-1.326171875,0.2529296875q-1.01171875,0-1.5927734375-0.478515625t-0.875-1.1962890625t-0.369140625-1.5654296875t-0.0751953125-1.640625z M135.481484375,100.21875q0-0.19140625,0.41015625-0.328125t0.9296875-0.2255859375t1.0048828125-0.1298828125t0.6630859375-0.068359375q0-0.369140625,0.02734375-0.7451171875t0.150390625-0.669921875t0.3896484375-0.4716796875t0.7451171875-0.177734375q0.396484375,0,0.6015625,0.095703125t0.4375,0.396484375q0.0546875,0.1640625,0.0546875,0.314453125l0,0.4580078125t-0.02734375,0.4716796875q0.505859375-0.0546875,1.0048828125-0.1298828125t1.0048828125-0.0751953125q0.369140625,0,0.505859375,0.013671875t0.2734375,0.328125q0.109375,0.314453125-0.2666015625,0.478515625t-0.90234375,0.24609375t-1.0458984375,0.123046875t-0.62890625,0.041015625q-0.1640625,2.3515625-0.3349609375,4.662109375t-0.1708984375,4.689453125q0,1.06640625,0.068359375,2.201171875t0.3828125,2.146484375q0.08203125,0.314453125,0.2734375,0.587890625t0.19140625,0.587890625q0,0.19140625-0.150390625,0.30078125t-0.3623046875,0.1845703125t-0.423828125,0.0888671875t-0.3486328125,0.013671875q-0.861328125,0-1.3125-0.642578125t-0.6494140625-1.5380859375t-0.2119140625-1.8388671875t-0.013671875-1.53125q0-1.203125,0.0478515625-2.4609375t0.1162109375-2.48828125t0.19140625-2.40625t0.287109375-2.1875q-0.478515625,0.0546875-0.9365234375,0.123046875t-0.9365234375,0.068359375q-0.109375,0-0.2939453125-0.013671875t-0.3486328125-0.068359375t-0.2802734375-0.150390625t-0.1162109375-0.2734375z M145.37541015625,100.21875q0-0.19140625,0.41015625-0.328125t0.9296875-0.2255859375t1.0048828125-0.1298828125t0.6630859375-0.068359375q0-0.369140625,0.02734375-0.7451171875t0.150390625-0.669921875t0.3896484375-0.4716796875t0.7451171875-0.177734375q0.396484375,0,0.6015625,0.095703125t0.4375,0.396484375q0.0546875,0.1640625,0.0546875,0.314453125l0,0.4580078125t-0.02734375,0.4716796875q0.505859375-0.0546875,1.0048828125-0.1298828125t1.0048828125-0.0751953125q0.369140625,0,0.505859375,0.013671875t0.2734375,0.328125q0.109375,0.314453125-0.2666015625,0.478515625t-0.90234375,0.24609375t-1.0458984375,0.123046875t-0.62890625,0.041015625q-0.1640625,2.3515625-0.3349609375,4.662109375t-0.1708984375,4.689453125q0,1.06640625,0.068359375,2.201171875t0.3828125,2.146484375q0.08203125,0.314453125,0.2734375,0.587890625t0.19140625,0.587890625q0,0.19140625-0.150390625,0.30078125t-0.3623046875,0.1845703125t-0.423828125,0.0888671875t-0.3486328125,0.013671875q-0.861328125,0-1.3125-0.642578125t-0.6494140625-1.5380859375t-0.2119140625-1.8388671875t-0.013671875-1.53125q0-1.203125,0.0478515625-2.4609375t0.1162109375-2.48828125t0.19140625-2.40625t0.287109375-2.1875q-0.478515625,0.0546875-0.9365234375,0.123046875t-0.9365234375,0.068359375q-0.109375,0-0.2939453125-0.013671875t-0.3486328125-0.068359375t-0.2802734375-0.150390625t-0.1162109375-0.2734375z M155.8298828125,109.4609375q0-0.95703125,0.2119140625-2.255859375t0.7177734375-2.4609375t1.3330078125-1.9755859375t2.0849609375-0.8134765625q1.17578125,0,1.763671875,0.6767578125t0.587890625,1.8251953125q0,0.751953125-0.2802734375,1.6474609375t-0.7998046875,1.6953125t-1.23046875,1.3330078125t-1.5859375,0.533203125l-0.35546875-0.02734375q0,0.369140625,0.109375,0.9912109375t0.3212890625,1.2373046875t0.546875,1.080078125t0.8134765625,0.46484375q0.697265625,0,1.33984375-0.560546875t1.216796875-1.244140625t1.06640625-1.244140625t0.90234375-0.560546875q0.21875,0,0.451171875,0.068359375t0.259765625,0.3828125q0,0.19140625-0.1025390625,0.314453125t-0.1845703125,0.2734375q-0.423828125,0.724609375-0.9228515625,1.380859375t-1.1279296875,1.189453125t-1.3740234375,0.8408203125t-1.6474609375,0.3076171875q-1.17578125,0-1.955078125-0.4169921875t-1.2578125-1.12109375t-0.6904296875-1.626953125t-0.2119140625-1.9345703125z M158.2771484375,108.421875l0.3828125,0.341796875q0.2734375,0.24609375,0.546875,0.109375t0.4921875-0.4990234375t0.4033203125-0.8955078125t0.328125-1.09375t0.2119140625-1.09375t0.068359375-0.888671875l0-0.46484375t-0.041015625-0.4921875t-0.1435546875-0.3896484375t-0.3212890625-0.1982421875q-0.068359375-0.013671875-0.123046875-0.013671875q-0.46484375,0-0.79296875,0.587890625q-0.35546875,0.65625-0.57421875,1.5927734375t-0.314453125,1.9208984375t-0.123046875,1.4765625z M167.25505859375,105.072265625q0-0.560546875,0.1982421875-0.943359375t0.8408203125-0.3828125q0.24609375,0,0.615234375,0.0751953125t0.423828125,0.3759765625q0.13671875,0.806640625,0.150390625,1.75t0.095703125,1.77734375q0.314453125-0.615234375,0.806640625-1.326171875t1.12109375-1.3125t1.3671875-0.998046875t1.50390625-0.396484375q0.0546875,0,0.205078125,0.041015625t0.2802734375,0.1162109375t0.1572265625,0.1708984375t-0.150390625,0.177734375q-0.0546875,0.1640625-0.232421875,0.1982421875t-0.314453125,0.0341796875q-0.08203125,0-0.259765625-0.068359375q-1.01171875,0.533203125-1.72265625,1.44921875t-1.162109375,2.0302734375t-0.65625,2.3515625t-0.205078125,2.4130859375q0,0.587890625-0.2666015625,0.7109375t-0.8544921875,0.123046875q-0.314453125,0-0.6630859375-0.068359375t-0.4853515625-0.4375q-0.24609375-0.779296875-0.4033203125-1.791015625t-0.2392578125-2.0849609375t-0.1162109375-2.1123046875t-0.0341796875-1.873046875z"/><path fill="#487ca1" d="M184.369140625,102.98828125l0-0.92578125q0-0.9609375,0.0322265625-1.9072265625t0.0556640625-1.9072265625q0-0.181640625-0.01171875-0.404296875q-0.005859375-0.064453125-0.005859375-0.123046875q0-0.146484375,0.0234375-0.287109375q0.029296875-0.1875,0.1435546875-0.322265625t0.3779296875-0.134765625q0.216796875,0,0.3310546875,0.046875t0.1611328125,0.1376953125t0.052734375,0.228515625t0.005859375,0.3193359375q0,0.97265625-0.0234375,1.951171875q-0.017578125,0.650390625-0.017578125,1.30078125q0,0.328125,0.005859375,0.65625q0.01171875,0.97265625,0.0908203125,1.9453125t0.2666015625,1.921875q0.5859375-0.0234375,1.171875-0.05859375t1.171875-0.03515625q0.05859375,0,0.1669921875,0.01171875t0.216796875,0.041015625t0.1845703125,0.076171875t0.076171875,0.134765625q0,0.05859375-0.052734375,0.099609375t-0.099609375,0.064453125l-0.01171875,0q-0.09375,0.046875-0.3720703125,0.0908203125t-0.6328125,0.0673828125t-0.744140625,0.041015625t-0.732421875,0.029296875t-0.5947265625,0.017578125t-0.310546875,0.005859375l-0.052734375,0q-0.140625,0-0.31640625-0.046875q-0.2109375-0.05859375-0.263671875-0.228515625q-0.10546875-0.43359375-0.1669921875-0.8994140625t-0.09375-0.9462890625t-0.0322265625-0.9609375z M189.68751953125,104.0546875q0-0.41015625,0.0908203125-0.966796875t0.3076171875-1.0546875t0.5712890625-0.8466796875t0.8935546875-0.3486328125q0.50390625,0,0.755859375,0.2900390625t0.251953125,0.7822265625q0,0.322265625-0.1201171875,0.7060546875t-0.3427734375,0.7265625t-0.52734375,0.5712890625t-0.6796875,0.228515625l-0.15234375-0.01171875q0,0.158203125,0.046875,0.4248046875t0.1376953125,0.5302734375t0.234375,0.462890625t0.3486328125,0.19921875q0.298828125,0,0.57421875-0.240234375t0.521484375-0.533203125t0.45703125-0.533203125t0.38671875-0.240234375q0.09375,0,0.193359375,0.029296875t0.111328125,0.1640625q0,0.08203125-0.0439453125,0.134765625t-0.0791015625,0.1171875q-0.181640625,0.310546875-0.3955078125,0.591796875t-0.4833984375,0.509765625t-0.5888671875,0.3603515625t-0.7060546875,0.1318359375q-0.50390625,0-0.837890625-0.1787109375t-0.5390625-0.48046875t-0.2958984375-0.697265625t-0.0908203125-0.8291015625z M190.73634765625,103.609375l0.1640625,0.146484375q0.1171875,0.10546875,0.234375,0.046875t0.2109375-0.2138671875t0.1728515625-0.3837890625t0.140625-0.46875t0.0908203125-0.46875t0.029296875-0.380859375l0-0.19921875t-0.017578125-0.2109375t-0.0615234375-0.1669921875t-0.1376953125-0.0849609375q-0.029296875-0.005859375-0.052734375-0.005859375q-0.19921875,0-0.33984375,0.251953125q-0.15234375,0.28125-0.24609375,0.6826171875t-0.134765625,0.8232421875t-0.052734375,0.6328125z M194.5840234375,103.814453125q0-0.3984375,0.1083984375-0.767578125t0.3251953125-0.6591796875t0.5419921875-0.462890625t0.7529296875-0.1728515625q0.263671875,0,0.5830078125,0.0791015625t0.6005859375,0.234375t0.46875,0.3955078125t0.1875,0.55078125q0,0.146484375-0.0498046875,0.22265625t-0.2021484375,0.076171875l-0.064453125-0.01171875q0.169921875,0.45703125,0.29296875,0.9375t0.240234375,0.9609375q0.046875,0.09375,0.0703125,0.1669921875t0.0234375,0.1435546875q0,0.09375-0.052734375,0.1552734375t-0.1376953125,0.0908203125t-0.17578125,0.041015625t-0.1611328125,0.01171875q-0.251953125,0-0.3779296875-0.087890625t-0.181640625-0.240234375t-0.0673828125-0.3427734375t-0.046875-0.3837890625q-0.0703125,0.228515625-0.1845703125,0.4453125t-0.26953125,0.3896484375t-0.3662109375,0.275390625t-0.474609375,0.1025390625q-0.38671875,0-0.650390625-0.22265625t-0.4248046875-0.5478515625t-0.234375-0.6943359375t-0.0732421875-0.685546875z M195.4160546875,103.732421875q0,0.216796875,0.029296875,0.45703125t0.0966796875,0.474609375t0.1728515625,0.4423828125t0.263671875,0.3662109375q0.287109375-0.310546875,0.4248046875-0.755859375t0.24609375-0.8583984375t0.24609375-0.708984375t0.4248046875-0.2958984375q0.181640625,0,0.3046875,0.064453125q-0.05859375-0.146484375-0.193359375-0.2841796875t-0.3017578125-0.251953125t-0.345703125-0.1875t-0.3369140625-0.0732421875q-0.046875,0-0.1083984375,0.0146484375t-0.0966796875,0.0029296875q-0.240234375,0.0703125-0.3955078125,0.2431640625t-0.251953125,0.4072265625t-0.1376953125,0.48046875t-0.041015625,0.462890625z M199.42193359375,101.634765625q0-0.046875,0.0556640625-0.0849609375t0.1259765625-0.0556640625t0.1435546875-0.0234375t0.1083984375-0.005859375q0.263671875,0,0.451171875,0.234375t0.3251953125,0.6005859375t0.234375,0.80859375t0.1845703125,0.8818359375t0.1728515625,0.8056640625t0.1904296875,0.5654296875q0.181640625-0.357421875,0.3310546875-0.861328125t0.275390625-1.04296875t0.22265625-1.0634765625t0.1552734375-0.9169921875q0.0234375-0.10546875,0.146484375-0.1318359375t0.205078125-0.0263671875q0.134765625,0,0.234375,0.0380859375t0.099609375,0.1669921875q0,0.216796875-0.052734375,0.5888671875t-0.1435546875,0.8349609375t-0.2109375,0.94921875t-0.2578125,0.9228515625t-0.287109375,0.7734375t-0.2958984375,0.4775390625q-0.0703125,0.08203125-0.2197265625,0.1142578125t-0.2490234375,0.0322265625q-0.345703125,0-0.57421875-0.181640625l0,0.01171875q-0.357421875-0.333984375-0.52734375-0.814453125t-0.24609375-1.001953125t-0.1376953125-1.037109375t-0.2080078125-0.9375q-0.0234375-0.046875-0.05859375-0.1376953125t-0.08203125-0.181640625t-0.0791015625-0.1728515625t-0.0322265625-0.12890625z M204.043046875,104.0546875q0-0.41015625,0.0908203125-0.966796875t0.3076171875-1.0546875t0.5712890625-0.8466796875t0.8935546875-0.3486328125q0.50390625,0,0.755859375,0.2900390625t0.251953125,0.7822265625q0,0.322265625-0.1201171875,0.7060546875t-0.3427734375,0.7265625t-0.52734375,0.5712890625t-0.6796875,0.228515625l-0.15234375-0.01171875q0,0.158203125,0.046875,0.4248046875t0.1376953125,0.5302734375t0.234375,0.462890625t0.3486328125,0.19921875q0.298828125,0,0.57421875-0.240234375t0.521484375-0.533203125t0.45703125-0.533203125t0.38671875-0.240234375q0.09375,0,0.193359375,0.029296875t0.111328125,0.1640625q0,0.08203125-0.0439453125,0.134765625t-0.0791015625,0.1171875q-0.181640625,0.310546875-0.3955078125,0.591796875t-0.4833984375,0.509765625t-0.5888671875,0.3603515625t-0.7060546875,0.1318359375q-0.50390625,0-0.837890625-0.1787109375t-0.5390625-0.48046875t-0.2958984375-0.697265625t-0.0908203125-0.8291015625z M205.091875,103.609375l0.1640625,0.146484375q0.1171875,0.10546875,0.234375,0.046875t0.2109375-0.2138671875t0.1728515625-0.3837890625t0.140625-0.46875t0.0908203125-0.46875t0.029296875-0.380859375l0-0.19921875t-0.017578125-0.2109375t-0.0615234375-0.1669921875t-0.1376953125-0.0849609375q-0.029296875-0.005859375-0.052734375-0.005859375q-0.19921875,0-0.33984375,0.251953125q-0.15234375,0.28125-0.24609375,0.6826171875t-0.134765625,0.8232421875t-0.052734375,0.6328125z M211.237421875,102.3466796875q-0.0146484375-0.1962890625,0.0234375-0.3603515625t0.15234375-0.2666015625t0.3662109375-0.1025390625q0.05859375,0,0.1435546875,0.0146484375t0.1669921875,0.0380859375t0.1376953125,0.0703125t0.0556640625,0.12890625l0,0.662109375q0.228515625-0.263671875,0.498046875-0.3779296875t0.615234375-0.1142578125q0.263671875,0,0.521484375,0.1201171875t0.486328125,0.3193359375t0.3955078125,0.439453125t0.2431640625,0.48046875q0.046875-0.216796875,0.10546875-0.5302734375t0.1728515625-0.6005859375t0.3017578125-0.4921875t0.498046875-0.205078125q0.333984375,0,0.5625,0.240234375t0.3720703125,0.6240234375t0.216796875,0.8583984375t0.1083984375,0.9375t0.03515625,0.8642578125l0,0.6298828125q0,0.0703125-0.052734375,0.1142578125t-0.1318359375,0.0673828125t-0.1640625,0.029296875t-0.1318359375,0.005859375q-0.181640625,0-0.3310546875-0.0556640625t-0.1494140625-0.2841796875l0-0.52734375t-0.01171875-0.6826171875t-0.041015625-0.732421875t-0.076171875-0.6650390625t-0.1201171875-0.48046875t-0.1787109375-0.1875q-0.146484375,0-0.2109375,0.1640625t-0.1083984375,0.416015625t-0.0673828125,0.533203125t-0.064453125,0.533203125t-0.1318359375,0.4130859375t-0.2490234375,0.1611328125q-0.169921875,0-0.298828125-0.1611328125t-0.2548828125-0.4013671875t-0.251953125-0.515625t-0.2783203125-0.515625q-0.15234375-0.24609375-0.328125-0.3984375q-0.158203125-0.146484375-0.357421875-0.140625l-0.029296875,0q-0.263671875,0.01171875-0.4130859375,0.1904296875t-0.228515625,0.4365234375t-0.0966796875,0.5537109375t-0.017578125,0.5185546875q0,0.2109375,0.03515625,0.4921875q0.0234375,0.1875,0.0234375,0.357421875q0,0.087890625-0.005859375,0.169921875q-0.017578125,0.24609375-0.1318359375,0.4130859375t-0.4248046875,0.1669921875q-0.1171875,0-0.29296875-0.0234375t-0.234375-0.158203125q-0.134765625-0.240234375-0.205078125-0.6064453125t-0.10546875-0.755859375t-0.041015625-0.7734375t-0.005859375-0.6591796875q0-0.193359375-0.0146484375-0.3896484375z M218.62708984375,104.0546875q0-0.41015625,0.0908203125-0.966796875t0.3076171875-1.0546875t0.5712890625-0.8466796875t0.8935546875-0.3486328125q0.50390625,0,0.755859375,0.2900390625t0.251953125,0.7822265625q0,0.322265625-0.1201171875,0.7060546875t-0.3427734375,0.7265625t-0.52734375,0.5712890625t-0.6796875,0.228515625l-0.15234375-0.01171875q0,0.158203125,0.046875,0.4248046875t0.1376953125,0.5302734375t0.234375,0.462890625t0.3486328125,0.19921875q0.298828125,0,0.57421875-0.240234375t0.521484375-0.533203125t0.45703125-0.533203125t0.38671875-0.240234375q0.09375,0,0.193359375,0.029296875t0.111328125,0.1640625q0,0.08203125-0.0439453125,0.134765625t-0.0791015625,0.1171875q-0.181640625,0.310546875-0.3955078125,0.591796875t-0.4833984375,0.509765625t-0.5888671875,0.3603515625t-0.7060546875,0.1318359375q-0.50390625,0-0.837890625-0.1787109375t-0.5390625-0.48046875t-0.2958984375-0.697265625t-0.0908203125-0.8291015625z M219.67591796875,103.609375l0.1640625,0.146484375q0.1171875,0.10546875,0.234375,0.046875t0.2109375-0.2138671875t0.1728515625-0.3837890625t0.140625-0.46875t0.0908203125-0.46875t0.029296875-0.380859375l0-0.19921875t-0.017578125-0.2109375t-0.0615234375-0.1669921875t-0.1376953125-0.0849609375q-0.029296875-0.005859375-0.052734375-0.005859375q-0.19921875,0-0.33984375,0.251953125q-0.15234375,0.28125-0.24609375,0.6826171875t-0.134765625,0.8232421875t-0.052734375,0.6328125z M225.80681640625,103.814453125q0-0.3984375,0.1083984375-0.767578125t0.3251953125-0.6591796875t0.5419921875-0.462890625t0.7529296875-0.1728515625q0.263671875,0,0.5830078125,0.0791015625t0.6005859375,0.234375t0.46875,0.3955078125t0.1875,0.55078125q0,0.146484375-0.0498046875,0.22265625t-0.2021484375,0.076171875l-0.064453125-0.01171875q0.169921875,0.45703125,0.29296875,0.9375t0.240234375,0.9609375q0.046875,0.09375,0.0703125,0.1669921875t0.0234375,0.1435546875q0,0.09375-0.052734375,0.1552734375t-0.1376953125,0.0908203125t-0.17578125,0.041015625t-0.1611328125,0.01171875q-0.251953125,0-0.3779296875-0.087890625t-0.181640625-0.240234375t-0.0673828125-0.3427734375t-0.046875-0.3837890625q-0.0703125,0.228515625-0.1845703125,0.4453125t-0.26953125,0.3896484375t-0.3662109375,0.275390625t-0.474609375,0.1025390625q-0.38671875,0-0.650390625-0.22265625t-0.4248046875-0.5478515625t-0.234375-0.6943359375t-0.0732421875-0.685546875z M226.63884765625,103.732421875q0,0.216796875,0.029296875,0.45703125t0.0966796875,0.474609375t0.1728515625,0.4423828125t0.263671875,0.3662109375q0.287109375-0.310546875,0.4248046875-0.755859375t0.24609375-0.8583984375t0.24609375-0.708984375t0.4248046875-0.2958984375q0.181640625,0,0.3046875,0.064453125q-0.05859375-0.146484375-0.193359375-0.2841796875t-0.3017578125-0.251953125t-0.345703125-0.1875t-0.3369140625-0.0732421875q-0.046875,0-0.1083984375,0.0146484375t-0.0966796875,0.0029296875q-0.240234375,0.0703125-0.3955078125,0.2431640625t-0.251953125,0.4072265625t-0.1376953125,0.48046875t-0.041015625,0.462890625z M230.8849609375,105.89453125q0-0.169921875,0.0146484375-0.357421875t0.0263671875-0.3515625l0.03515625-0.87890625q0.05859375-1.0546875,0.1435546875-2.07421875t0.1435546875-2.0625q0.03515625-0.57421875,0.052734375-1.1279296875t0.052734375-1.1279296875q-0.0234375-0.046875-0.0234375-0.064453125q0-0.08203125,0.0615234375-0.12890625t0.1435546875-0.0791015625t0.1728515625-0.0439453125t0.1376953125-0.01171875l0.134765625,0q0.181640625,0.0234375,0.263671875,0.1142578125t0.10546875,0.216796875t0.01171875,0.26953125t-0.01171875,0.2666015625q0,0.849609375-0.041015625,1.7314453125t-0.09375,1.76953125t-0.0966796875,1.775390625t-0.0439453125,1.7548828125l0,0.41015625q0,0.275390625-0.1552734375,0.36328125t-0.4306640625,0.087890625q-0.240234375,0-0.421875-0.10546875t-0.181640625-0.345703125z M233.45529296875,103.92578125q0-0.333984375,0.0849609375-0.6884765625t0.26953125-0.638671875t0.4658203125-0.462890625t0.6796875-0.1787109375q0.298828125,0,0.6298828125,0.1025390625t0.6064453125,0.29296875t0.4482421875,0.4658203125t0.1728515625,0.615234375q0,0.41015625-0.1494140625,0.779296875t-0.4189453125,0.6591796875t-0.6298828125,0.45703125t-0.7822265625,0.1669921875q-0.345703125,0-0.603515625-0.1259765625t-0.4306640625-0.3369140625t-0.2578125-0.498046875t-0.0849609375-0.609375z M234.31662109375,103.9140625q0,0.10546875,0.0322265625,0.310546875t0.0966796875,0.4013671875t0.1669921875,0.33984375t0.2490234375,0.1318359375q0.310546875-0.03515625,0.5126953125-0.2021484375t0.328125-0.4072265625t0.17578125-0.521484375t0.0498046875-0.533203125q0-0.322265625-0.1259765625-0.5390625t-0.4130859375-0.3515625q0,0.01171875,0.01171875,0.01171875t0.01171875-0.01171875l-0.146484375-0.03515625q-0.05859375-0.0234375-0.1435546875-0.052734375t-0.1669921875-0.12890625q-0.228515625,0.08203125-0.3544921875,0.2109375t-0.1904296875,0.3134765625t-0.0791015625,0.4423828125t-0.0146484375,0.62109375z M237.900625,103.84375l0-0.169921875q0-0.2109375,0.01171875-0.3984375q0.01171875-0.263671875,0.01171875-0.43359375q0-0.09375,0.01171875-0.2138671875t0.05859375-0.1904296875q0.05859375-0.05859375,0.1376953125-0.1201171875t0.1728515625-0.0615234375q0.298828125,0,0.46875,0.0673828125t0.181640625,0.2783203125l0.0234375,0.181640625q0.10546875-0.251953125,0.28125-0.6240234375t0.4072265625-0.708984375t0.521484375-0.57421875t0.6123046875-0.2373046875q0.298828125,0,0.4921875,0.28125t0.3076171875,0.7177734375t0.1611328125,0.97265625t0.064453125,1.0517578125t0.0234375,0.9404296875t0.041015625,0.6416015625q0.0234375,0.181640625,0.0791015625,0.3837890625t0.0556640625,0.3720703125q0,0.046875-0.0673828125,0.0908203125t-0.1435546875,0.0732421875t-0.1552734375,0.046875t-0.1142578125,0.017578125q-0.228515625,0-0.3251953125-0.3427734375t-0.1201171875-0.8583984375t-0.0234375-1.1162109375t-0.041015625-1.1162109375t-0.1669921875-0.8583984375t-0.4013671875-0.3544921875q-0.251953125,0-0.521484375,0.3251953125t-0.462890625,0.8642578125q-0.1875,0.5390625-0.2578125,1.224609375q-0.0234375,0.216796875-0.0234375,0.43359375q0,0.474609375,0.099609375,0.94921875q0.01171875,0.08203125-0.0673828125,0.123046875t-0.1962890625,0.064453125t-0.2373046875,0.029296875t-0.1845703125,0.005859375q-0.228515625,0-0.3662109375-0.1611328125t-0.2138671875-0.4130859375t-0.1025390625-0.5654296875t-0.0322265625-0.6181640625z M243.22486328125,104.0546875q0-0.41015625,0.0908203125-0.966796875t0.3076171875-1.0546875t0.5712890625-0.8466796875t0.8935546875-0.3486328125q0.50390625,0,0.755859375,0.2900390625t0.251953125,0.7822265625q0,0.322265625-0.1201171875,0.7060546875t-0.3427734375,0.7265625t-0.52734375,0.5712890625t-0.6796875,0.228515625l-0.15234375-0.01171875q0,0.158203125,0.046875,0.4248046875t0.1376953125,0.5302734375t0.234375,0.462890625t0.3486328125,0.19921875q0.298828125,0,0.57421875-0.240234375t0.521484375-0.533203125t0.45703125-0.533203125t0.38671875-0.240234375q0.09375,0,0.193359375,0.029296875t0.111328125,0.1640625q0,0.08203125-0.0439453125,0.134765625t-0.0791015625,0.1171875q-0.181640625,0.310546875-0.3955078125,0.591796875t-0.4833984375,0.509765625t-0.5888671875,0.3603515625t-0.7060546875,0.1318359375q-0.50390625,0-0.837890625-0.1787109375t-0.5390625-0.48046875t-0.2958984375-0.697265625t-0.0908203125-0.8291015625z M244.27369140625,103.609375l0.1640625,0.146484375q0.1171875,0.10546875,0.234375,0.046875t0.2109375-0.2138671875t0.1728515625-0.3837890625t0.140625-0.46875t0.0908203125-0.46875t0.029296875-0.380859375l0-0.19921875t-0.017578125-0.2109375t-0.0615234375-0.1669921875t-0.1376953125-0.0849609375q-0.029296875-0.005859375-0.052734375-0.005859375q-0.19921875,0-0.33984375,0.251953125q-0.15234375,0.28125-0.24609375,0.6826171875t-0.134765625,0.8232421875t-0.052734375,0.6328125z"/></svg>
